# Tiled2Unity generated file. Do not modify by hand.
# Wavefront file for 'level3_mesh_0002.obj'

# Vertices (Count = 40)
v -50 -45 -0.45
v -51 -45 -0.45
v -51 -44 -0.45
v -50 -44 -0.45
v -48 -49 -0.49
v -49 -49 -0.49
v -49 -48 -0.49
v -48 -48 -0.49
v -49 -49 -0.49
v -50 -49 -0.49
v -50 -48 -0.49
v -49 -48 -0.49
v -58 -49 -0.49
v -59 -49 -0.49
v -59 -48 -0.49
v -58 -48 -0.49
v -59 -49 -0.49
v -60 -49 -0.49
v -60 -48 -0.49
v -59 -48 -0.49
v -78 -49 -0.49
v -79 -49 -0.49
v -79 -48 -0.49
v -78 -48 -0.49
v -34 -51 -0.51
v -35 -51 -0.51
v -35 -50 -0.51
v -34 -50 -0.51
v -35 -51 -0.51
v -36 -51 -0.51
v -36 -50 -0.51
v -35 -50 -0.51
v -36 -51 -0.51
v -37 -51 -0.51
v -37 -50 -0.51
v -36 -50 -0.51
v -73 -51 -0.51
v -74 -51 -0.51
v -74 -50 -0.51
v -73 -50 -0.51

# Texture cooridinates (Count = 4)
vt 0.125 0.625
vt 0.25 0.625
vt 0.25 0.75
vt 0.125 0.75

# Normal
vn 0 0 -1

# Mesh description
g level3_mesh_0002

# Faces
f 1/1/1 2/2/1 3/3/1 4/4/1
f 5/1/1 6/2/1 7/3/1 8/4/1
f 9/1/1 10/2/1 11/3/1 12/4/1
f 13/1/1 14/2/1 15/3/1 16/4/1
f 17/1/1 18/2/1 19/3/1 20/4/1
f 21/1/1 22/2/1 23/3/1 24/4/1
f 25/1/1 26/2/1 27/3/1 28/4/1
f 29/1/1 30/2/1 31/3/1 32/4/1
f 33/1/1 34/2/1 35/3/1 36/4/1
f 37/1/1 38/2/1 39/3/1 40/4/1

