# Tiled2Unity generated file. Do not modify by hand.
# Wavefront file for 'level3_mesh_0001.obj'

# Vertices (Count = 248)
v -56 -45 -0.45
v -57 -45 -0.45
v -57 -44 -0.45
v -56 -44 -0.45
v -57 -45 -0.45
v -58 -45 -0.45
v -58 -44 -0.45
v -57 -44 -0.45
v -58 -45 -0.45
v -59 -45 -0.45
v -59 -44 -0.45
v -58 -44 -0.45
v -49 -46 -0.46
v -50 -46 -0.46
v -50 -45 -0.46
v -49 -45 -0.46
v -50 -46 -0.46
v -51 -46 -0.46
v -51 -45 -0.46
v -50 -45 -0.46
v -51 -46 -0.46
v -52 -46 -0.46
v -52 -45 -0.46
v -51 -45 -0.46
v -52 -46 -0.46
v -53 -46 -0.46
v -53 -45 -0.46
v -52 -45 -0.46
v -54 -46 -0.46
v -55 -46 -0.46
v -55 -45 -0.46
v -54 -45 -0.46
v -55 -46 -0.46
v -56 -46 -0.46
v -56 -45 -0.46
v -55 -45 -0.46
v -46 -50 -0.5
v -47 -50 -0.5
v -47 -49 -0.5
v -46 -49 -0.5
v -47 -50 -0.5
v -48 -50 -0.5
v -48 -49 -0.5
v -47 -49 -0.5
v -48 -50 -0.5
v -49 -50 -0.5
v -49 -49 -0.5
v -48 -49 -0.5
v -49 -50 -0.5
v -50 -50 -0.5
v -50 -49 -0.5
v -49 -49 -0.5
v -50 -50 -0.5
v -51 -50 -0.5
v -51 -49 -0.5
v -50 -49 -0.5
v -51 -50 -0.5
v -52 -50 -0.5
v -52 -49 -0.5
v -51 -49 -0.5
v -52 -50 -0.5
v -53 -50 -0.5
v -53 -49 -0.5
v -52 -49 -0.5
v -56 -50 -0.5
v -57 -50 -0.5
v -57 -49 -0.5
v -56 -49 -0.5
v -57 -50 -0.5
v -58 -50 -0.5
v -58 -49 -0.5
v -57 -49 -0.5
v -58 -50 -0.5
v -59 -50 -0.5
v -59 -49 -0.5
v -58 -49 -0.5
v -59 -50 -0.5
v -60 -50 -0.5
v -60 -49 -0.5
v -59 -49 -0.5
v -60 -50 -0.5
v -61 -50 -0.5
v -61 -49 -0.5
v -60 -49 -0.5
v -61 -50 -0.5
v -62 -50 -0.5
v -62 -49 -0.5
v -61 -49 -0.5
v -76 -50 -0.5
v -77 -50 -0.5
v -77 -49 -0.5
v -76 -49 -0.5
v -77 -50 -0.5
v -78 -50 -0.5
v -78 -49 -0.5
v -77 -49 -0.5
v -78 -50 -0.5
v -79 -50 -0.5
v -79 -49 -0.5
v -78 -49 -0.5
v -79 -50 -0.5
v -80 -50 -0.5
v -80 -49 -0.5
v -79 -49 -0.5
v -80 -50 -0.5
v -81 -50 -0.5
v -81 -49 -0.5
v -80 -49 -0.5
v -81 -50 -0.5
v -82 -50 -0.5
v -82 -49 -0.5
v -81 -49 -0.5
v -82 -50 -0.5
v -83 -50 -0.5
v -83 -49 -0.5
v -82 -49 -0.5
v -42 -51 -0.51
v -43 -51 -0.51
v -43 -50 -0.51
v -42 -50 -0.51
v -43 -51 -0.51
v -44 -51 -0.51
v -44 -50 -0.51
v -43 -50 -0.51
v -44 -51 -0.51
v -45 -51 -0.51
v -45 -50 -0.51
v -44 -50 -0.51
v -45 -51 -0.51
v -46 -51 -0.51
v -46 -50 -0.51
v -45 -50 -0.51
v -46 -51 -0.51
v -47 -51 -0.51
v -47 -50 -0.51
v -46 -50 -0.51
v -61 -51 -0.51
v -62 -51 -0.51
v -62 -50 -0.51
v -61 -50 -0.51
v -76 -51 -0.51
v -77 -51 -0.51
v -77 -50 -0.51
v -76 -50 -0.51
v -31 -52 -0.52
v -32 -52 -0.52
v -32 -51 -0.52
v -31 -51 -0.52
v -32 -52 -0.52
v -33 -52 -0.52
v -33 -51 -0.52
v -32 -51 -0.52
v -33 -52 -0.52
v -34 -52 -0.52
v -34 -51 -0.52
v -33 -51 -0.52
v -34 -52 -0.52
v -35 -52 -0.52
v -35 -51 -0.52
v -34 -51 -0.52
v -35 -52 -0.52
v -36 -52 -0.52
v -36 -51 -0.52
v -35 -51 -0.52
v -36 -52 -0.52
v -37 -52 -0.52
v -37 -51 -0.52
v -36 -51 -0.52
v -37 -52 -0.52
v -38 -52 -0.52
v -38 -51 -0.52
v -37 -51 -0.52
v -38 -52 -0.52
v -39 -52 -0.52
v -39 -51 -0.52
v -38 -51 -0.52
v -39 -52 -0.52
v -40 -52 -0.52
v -40 -51 -0.52
v -39 -51 -0.52
v -40 -52 -0.52
v -41 -52 -0.52
v -41 -51 -0.52
v -40 -51 -0.52
v -41 -52 -0.52
v -42 -52 -0.52
v -42 -51 -0.52
v -41 -51 -0.52
v -61 -52 -0.52
v -62 -52 -0.52
v -62 -51 -0.52
v -61 -51 -0.52
v -71 -52 -0.52
v -72 -52 -0.52
v -72 -51 -0.52
v -71 -51 -0.52
v -72 -52 -0.52
v -73 -52 -0.52
v -73 -51 -0.52
v -72 -51 -0.52
v -73 -52 -0.52
v -74 -52 -0.52
v -74 -51 -0.52
v -73 -51 -0.52
v -74 -52 -0.52
v -75 -52 -0.52
v -75 -51 -0.52
v -74 -51 -0.52
v -75 -52 -0.52
v -76 -52 -0.52
v -76 -51 -0.52
v -75 -51 -0.52
v -76 -52 -0.52
v -77 -52 -0.52
v -77 -51 -0.52
v -76 -51 -0.52
v -61 -53 -0.53
v -62 -53 -0.53
v -62 -52 -0.53
v -61 -52 -0.53
v -61 -54 -0.54
v -62 -54 -0.54
v -62 -53 -0.54
v -61 -53 -0.54
v -62 -54 -0.54
v -63 -54 -0.54
v -63 -53 -0.54
v -62 -53 -0.54
v -63 -54 -0.54
v -64 -54 -0.54
v -64 -53 -0.54
v -63 -53 -0.54
v -66 -54 -0.54
v -67 -54 -0.54
v -67 -53 -0.54
v -66 -53 -0.54
v -67 -54 -0.54
v -68 -54 -0.54
v -68 -53 -0.54
v -67 -53 -0.54
v -68 -54 -0.54
v -69 -54 -0.54
v -69 -53 -0.54
v -68 -53 -0.54
v -69 -54 -0.54
v -70 -54 -0.54
v -70 -53 -0.54
v -69 -53 -0.54

# Texture cooridinates (Count = 4)
vt 0 0.625
vt 0.125 0.625
vt 0.125 0.75
vt 0 0.75

# Normal
vn 0 0 -1

# Mesh description
g level3_mesh_0001

# Faces
f 1/1/1 2/2/1 3/3/1 4/4/1
f 5/1/1 6/2/1 7/3/1 8/4/1
f 9/1/1 10/2/1 11/3/1 12/4/1
f 13/1/1 14/2/1 15/3/1 16/4/1
f 17/1/1 18/2/1 19/3/1 20/4/1
f 21/1/1 22/2/1 23/3/1 24/4/1
f 25/1/1 26/2/1 27/3/1 28/4/1
f 29/1/1 30/2/1 31/3/1 32/4/1
f 33/1/1 34/2/1 35/3/1 36/4/1
f 37/1/1 38/2/1 39/3/1 40/4/1
f 41/1/1 42/2/1 43/3/1 44/4/1
f 45/1/1 46/2/1 47/3/1 48/4/1
f 49/1/1 50/2/1 51/3/1 52/4/1
f 53/1/1 54/2/1 55/3/1 56/4/1
f 57/1/1 58/2/1 59/3/1 60/4/1
f 61/1/1 62/2/1 63/3/1 64/4/1
f 65/1/1 66/2/1 67/3/1 68/4/1
f 69/1/1 70/2/1 71/3/1 72/4/1
f 73/1/1 74/2/1 75/3/1 76/4/1
f 77/1/1 78/2/1 79/3/1 80/4/1
f 81/1/1 82/2/1 83/3/1 84/4/1
f 85/1/1 86/2/1 87/3/1 88/4/1
f 89/1/1 90/2/1 91/3/1 92/4/1
f 93/1/1 94/2/1 95/3/1 96/4/1
f 97/1/1 98/2/1 99/3/1 100/4/1
f 101/1/1 102/2/1 103/3/1 104/4/1
f 105/1/1 106/2/1 107/3/1 108/4/1
f 109/1/1 110/2/1 111/3/1 112/4/1
f 113/1/1 114/2/1 115/3/1 116/4/1
f 117/1/1 118/2/1 119/3/1 120/4/1
f 121/1/1 122/2/1 123/3/1 124/4/1
f 125/1/1 126/2/1 127/3/1 128/4/1
f 129/1/1 130/2/1 131/3/1 132/4/1
f 133/1/1 134/2/1 135/3/1 136/4/1
f 137/1/1 138/2/1 139/3/1 140/4/1
f 141/1/1 142/2/1 143/3/1 144/4/1
f 145/1/1 146/2/1 147/3/1 148/4/1
f 149/1/1 150/2/1 151/3/1 152/4/1
f 153/1/1 154/2/1 155/3/1 156/4/1
f 157/1/1 158/2/1 159/3/1 160/4/1
f 161/1/1 162/2/1 163/3/1 164/4/1
f 165/1/1 166/2/1 167/3/1 168/4/1
f 169/1/1 170/2/1 171/3/1 172/4/1
f 173/1/1 174/2/1 175/3/1 176/4/1
f 177/1/1 178/2/1 179/3/1 180/4/1
f 181/1/1 182/2/1 183/3/1 184/4/1
f 185/1/1 186/2/1 187/3/1 188/4/1
f 189/1/1 190/2/1 191/3/1 192/4/1
f 193/1/1 194/2/1 195/3/1 196/4/1
f 197/1/1 198/2/1 199/3/1 200/4/1
f 201/1/1 202/2/1 203/3/1 204/4/1
f 205/1/1 206/2/1 207/3/1 208/4/1
f 209/1/1 210/2/1 211/3/1 212/4/1
f 213/1/1 214/2/1 215/3/1 216/4/1
f 217/1/1 218/2/1 219/3/1 220/4/1
f 221/1/1 222/2/1 223/3/1 224/4/1
f 225/1/1 226/2/1 227/3/1 228/4/1
f 229/1/1 230/2/1 231/3/1 232/4/1
f 233/1/1 234/2/1 235/3/1 236/4/1
f 237/1/1 238/2/1 239/3/1 240/4/1
f 241/1/1 242/2/1 243/3/1 244/4/1
f 245/1/1 246/2/1 247/3/1 248/4/1

